<mxfile host="app.diagrams.net" modified="2023-11-06T07:37:14.205Z" agent="Mozilla/5.0 (Windows NT 10.0; Win64; x64) AppleWebKit/537.36 (KHTML, like Gecko) Chrome/118.0.0.0 Safari/537.36 Edg/118.0.2088.69" version="22.0.8" etag="S0Dhxav2AClkJdSAM3vN" type="github">
  <diagram name="PÃ¡gina-1" id="fkLpZmyMGO628B_Et8On">
    <mxGraphModel>
      <root>
        <mxCell id="0" />
        <mxCell id="1" parent="0" />
      </root>
    </mxGraphModel>
  </diagram>
</mxfile>
